<svg width="18" height="24" viewBox="0 0 18 24" fill="none" xmlns="http://www.w3.org/2000/svg">
<path d="M10.8702 1.04137H1.65517C1.58163 1.02708 1.50571 1.03106 1.43407 1.05296C1.36243 1.07487 1.29727 1.11402 1.2443 1.16699C1.19133 1.21996 1.15217 1.28513 1.13027 1.35677C1.10837 1.42841 1.10438 1.50433 1.11868 1.57786V22.5167C1.12277 22.6353 1.17278 22.7477 1.25816 22.8301C1.34353 22.9126 1.45759 22.9586 1.57627 22.9585H16.4244C16.5431 22.9586 16.6571 22.9126 16.7425 22.8301C16.8279 22.7477 16.8779 22.6353 16.882 22.5167V7.05321L10.8702 1.04137Z" fill="white"/>
<path d="M16.6926 23.211H1.30803C1.19085 23.211 1.07847 23.1644 0.995615 23.0816C0.912759 22.9987 0.866211 22.8864 0.866211 22.7692V1.23072C0.870144 1.11479 0.917955 1.00469 0.999974 0.922669C1.08199 0.84065 1.1921 0.792839 1.30803 0.788906H10.8702C10.9154 0.784016 10.9612 0.788497 11.0046 0.802071C11.048 0.815645 11.0882 0.83802 11.1226 0.867802L17.1187 6.86386C17.1643 6.91704 17.192 6.98333 17.1976 7.05321V22.8323C17.1899 22.8906 17.1706 22.9467 17.1409 22.9974C17.1112 23.0482 17.0717 23.0925 17.0247 23.1277C16.9776 23.163 16.9241 23.1885 16.867 23.2028C16.81 23.2171 16.7507 23.2199 16.6926 23.211ZM1.82874 1.29384C1.70737 1.29384 1.59098 1.34205 1.50517 1.42786C1.41935 1.51368 1.37114 1.63007 1.37114 1.75143V22.2643C1.37523 22.3829 1.42525 22.4952 1.51062 22.5777C1.596 22.6601 1.71006 22.7061 1.82874 22.7061H16.1719C16.2906 22.7061 16.4047 22.6601 16.49 22.5777C16.5754 22.4952 16.6254 22.3829 16.6295 22.2643V7.16366L10.7597 1.29384H1.82874Z" fill="#333333"/>
<path d="M10.8702 1.04137L16.882 7.05321L11.312 7.05321C11.196 7.04927 11.0859 7.00146 11.0039 6.91944C10.9219 6.83742 10.8741 6.72732 10.8702 6.61139V1.04137Z" fill="#E1E0DE"/>
<path d="M16.882 7.30567H11.1226C11.064 7.30789 11.0056 7.29797 10.951 7.27655C10.8964 7.25513 10.8468 7.22267 10.8053 7.18119C10.7638 7.13972 10.7313 7.09012 10.7099 7.03552C10.6885 6.98091 10.6786 6.92247 10.6808 6.86386V1.05715C10.6697 1.0193 10.6681 0.979266 10.6764 0.940685C10.6847 0.902104 10.7025 0.866201 10.7281 0.836243C10.7541 0.808395 10.786 0.786772 10.8215 0.772991C10.8569 0.75921 10.8951 0.753628 10.933 0.756663C10.9709 0.759698 11.0077 0.771272 11.0405 0.790517C11.0734 0.809763 11.1014 0.836183 11.1226 0.867802L17.1187 6.86386C17.1422 6.90464 17.1546 6.95089 17.1546 6.99798C17.1546 7.04507 17.1422 7.09132 17.1187 7.1321C17.1045 7.18344 17.0734 7.22851 17.0305 7.26C16.9875 7.2915 16.9352 7.30759 16.882 7.30567ZM11.1226 1.65676V6.31159C11.1226 6.43295 11.1708 6.54934 11.2566 6.63516C11.3425 6.72097 11.4589 6.76918 11.5802 6.76918H16.3139L11.1226 1.65676Z" fill="#333333"/>
<path d="M10.8702 1.04137L11.2237 0.687818L11.0773 0.541372H10.8702V1.04137ZM1.65517 1.04137L1.55977 1.53219L1.60703 1.54137H1.65517V1.04137ZM1.2443 1.16699L1.59785 1.52055H1.59785L1.2443 1.16699ZM1.13027 1.35677L1.60842 1.50296V1.50296L1.13027 1.35677ZM1.11868 1.57786H1.61868V1.52972L1.60949 1.48247L1.11868 1.57786ZM1.11868 22.5167H0.618676V22.5253L0.618974 22.534L1.11868 22.5167ZM1.57627 22.9585V22.4585H1.57597L1.57627 22.9585ZM16.4244 22.9585L16.4247 22.4585H16.4244V22.9585ZM16.7425 22.8301L17.0898 23.1898L17.0898 23.1898L16.7425 22.8301ZM16.882 22.5167L17.3817 22.534L17.382 22.5253V22.5167H16.882ZM16.882 7.05321H17.382V6.8461L17.2355 6.69965L16.882 7.05321ZM16.6926 23.211L16.7684 22.7168L16.7307 22.711H16.6926V23.211ZM0.995615 23.0816L1.34917 22.728L1.34917 22.728L0.995615 23.0816ZM0.866211 22.7692H0.366211H0.866211ZM0.866211 1.23072L0.366498 1.21377L0.366211 1.22224V1.23072H0.866211ZM0.999974 0.922669L1.35353 1.27622L0.999974 0.922669ZM1.30803 0.788906V0.288906H1.29955L1.29107 0.289194L1.30803 0.788906ZM10.8702 0.788906V1.28891H10.8971L10.9239 1.28601L10.8702 0.788906ZM11.0046 0.802071L11.1537 0.324831L11.0046 0.802071ZM17.1187 6.86386L17.498 6.53814L17.4857 6.52373L17.4722 6.5103L17.1187 6.86386ZM17.1976 7.05321H17.6976V7.03317L17.696 7.01321L17.1976 7.05321ZM17.1976 22.8323L17.6932 22.8979L17.6976 22.8653V22.8323H17.1976ZM17.1409 22.9974L17.5724 23.25L17.5724 23.25L17.1409 22.9974ZM17.0247 23.1277L16.7247 22.7277L16.7247 22.7277L17.0247 23.1277ZM16.867 23.2028L16.7454 22.7178L16.7454 22.7178L16.867 23.2028ZM1.50517 1.42786L1.85872 1.78142L1.85872 1.78142L1.50517 1.42786ZM1.37114 22.2643H0.871142V22.2729L0.871439 22.2815L1.37114 22.2643ZM1.51062 22.5777L1.16332 22.9374L1.16332 22.9374L1.51062 22.5777ZM1.82874 22.7061V22.2061H1.82844L1.82874 22.7061ZM16.1719 22.7061L16.1722 22.2061H16.1719V22.7061ZM16.49 22.5777L16.8373 22.9374L16.8373 22.9374L16.49 22.5777ZM16.6295 22.2643L17.1292 22.2815L17.1295 22.2729V22.2643H16.6295ZM16.6295 7.16366H17.1295V6.95655L16.9831 6.81011L16.6295 7.16366ZM10.7597 1.29384L11.1133 0.940284L10.9668 0.793837H10.7597V1.29384ZM11.312 7.05321L11.295 7.55292C11.3007 7.55311 11.3063 7.55321 11.312 7.55321V7.05321ZM11.0039 6.91944L11.3575 6.56589L11.3575 6.56589L11.0039 6.91944ZM10.8702 6.61139H10.3702C10.3702 6.61704 10.3703 6.6227 10.3704 6.62835L10.8702 6.61139ZM16.882 7.30567L16.9 6.806C16.894 6.80578 16.888 6.80567 16.882 6.80567V7.30567ZM11.1226 7.30567V6.80567C11.1163 6.80567 11.11 6.80579 11.1037 6.80603L11.1226 7.30567ZM10.951 7.27655L10.7684 7.74202L10.7684 7.74202L10.951 7.27655ZM10.8053 7.18119L10.4517 7.53475V7.53475L10.8053 7.18119ZM10.7099 7.03552L11.1754 6.85293V6.85293L10.7099 7.03552ZM10.6808 6.86386L11.1804 6.88273C11.1807 6.87644 11.1808 6.87015 11.1808 6.86386H10.6808ZM10.6808 1.05715H11.1808C11.1808 1.00933 11.1739 0.961754 11.1604 0.915881L10.6808 1.05715ZM10.6764 0.940685L10.1875 0.83592V0.83592L10.6764 0.940685ZM10.7281 0.836243L10.3623 0.495442C10.3576 0.500481 10.353 0.505618 10.3485 0.510847L10.7281 0.836243ZM10.8215 0.772991L11.0025 1.23906V1.23906L10.8215 0.772991ZM10.933 0.756663L10.8931 1.25507L10.933 0.756663ZM11.0405 0.790517L11.2934 0.359156V0.359156L11.0405 0.790517ZM17.1187 7.1321L16.6857 6.8821C16.6644 6.91886 16.648 6.95817 16.6367 6.99909L17.1187 7.1321ZM17.0305 7.26L17.3262 7.66321L17.3262 7.66321L17.0305 7.26ZM11.1226 1.65676L11.4735 1.30051C11.3299 1.1591 11.1154 1.11772 10.9295 1.19555C10.7436 1.27339 10.6226 1.45522 10.6226 1.65676H11.1226ZM11.2566 6.63516L10.9031 6.98871H10.9031L11.2566 6.63516ZM16.3139 6.76918V7.26918C16.5169 7.26918 16.6997 7.14653 16.7766 6.95875C16.8536 6.77098 16.8094 6.55532 16.6648 6.41293L16.3139 6.76918ZM10.8702 0.541372H1.65517V1.54137H10.8702V0.541372ZM1.75056 0.550555C1.59667 0.520648 1.43779 0.528977 1.28788 0.574813L1.58026 1.53111C1.57363 1.53314 1.56659 1.53351 1.55977 1.53219L1.75056 0.550555ZM1.28788 0.574813C1.13796 0.620649 1.00159 0.702589 0.890744 0.81344L1.59785 1.52055C1.59294 1.52546 1.5869 1.52908 1.58026 1.53111L1.28788 0.574813ZM0.890744 0.81344C0.779894 0.92429 0.697954 1.06066 0.652118 1.21057L1.60842 1.50296C1.60639 1.5096 1.60276 1.51564 1.59785 1.52055L0.890744 0.81344ZM0.652118 1.21057C0.606282 1.36049 0.597952 1.51937 0.62786 1.67325L1.60949 1.48247C1.61082 1.48928 1.61045 1.49632 1.60842 1.50296L0.652118 1.21057ZM0.618676 1.57786V22.5167H1.61868V1.57786H0.618676ZM0.618974 22.534C0.627538 22.7822 0.732196 23.0173 0.910859 23.1898L1.60545 22.4704C1.61336 22.4781 1.618 22.4885 1.61838 22.4995L0.618974 22.534ZM0.910859 23.1898C1.08952 23.3623 1.32821 23.4587 1.57657 23.4585L1.57597 22.4585C1.58697 22.4585 1.59754 22.4628 1.60545 22.4704L0.910859 23.1898ZM1.57627 23.4585H16.4244V22.4585H1.57627V23.4585ZM16.4241 23.4585C16.6725 23.4587 16.9111 23.3623 17.0898 23.1898L16.3952 22.4704C16.4031 22.4628 16.4137 22.4585 16.4247 22.4585L16.4241 23.4585ZM17.0898 23.1898C17.2685 23.0173 17.3731 22.7822 17.3817 22.534L16.3823 22.4995C16.3827 22.4885 16.3873 22.4781 16.3952 22.4704L17.0898 23.1898ZM17.382 22.5167V7.05321H16.382V22.5167H17.382ZM17.2355 6.69965L11.2237 0.687818L10.5166 1.39493L16.5284 7.40676L17.2355 6.69965ZM16.6926 22.711H1.30803V23.711H16.6926V22.711ZM1.30803 22.711C1.32346 22.711 1.33826 22.7171 1.34917 22.728L0.64206 23.4351C0.818684 23.6118 1.05824 23.711 1.30803 23.711V22.711ZM1.34917 22.728C1.36008 22.739 1.36621 22.7538 1.36621 22.7692H0.366211C0.366211 23.019 0.465437 23.2585 0.642064 23.4351L1.34917 22.728ZM1.36621 22.7692V1.23072H0.366211V22.7692H1.36621ZM1.36592 1.24767C1.36556 1.25842 1.36113 1.26862 1.35353 1.27622L0.646421 0.569116C0.474781 0.740755 0.374729 0.971172 0.366498 1.21377L1.36592 1.24767ZM1.35353 1.27622C1.34593 1.28382 1.33572 1.28825 1.32498 1.28862L1.29107 0.289194C1.04848 0.297424 0.81806 0.397477 0.646421 0.569116L1.35353 1.27622ZM1.30803 1.28891H10.8702V0.288906H1.30803V1.28891ZM10.9239 1.28601C10.9009 1.2885 10.8776 1.28622 10.8555 1.27931L11.1537 0.324831C11.0448 0.290776 10.9299 0.279532 10.8164 0.291802L10.9239 1.28601ZM10.8555 1.27931C10.8334 1.2724 10.8129 1.26102 10.7954 1.24586L11.4498 0.489746C11.3635 0.415024 11.2627 0.358886 11.1537 0.324831L10.8555 1.27931ZM10.7691 1.22136L16.7651 7.21741L17.4722 6.5103L11.4762 0.514248L10.7691 1.22136ZM16.7393 7.18958C16.7161 7.16252 16.702 7.12878 16.6992 7.0932L17.696 7.01321C17.6819 6.83789 17.6126 6.67156 17.498 6.53814L16.7393 7.18958ZM16.6976 7.05321V22.8323H17.6976V7.05321H16.6976ZM16.7019 22.7667C16.7029 22.759 16.7055 22.7516 16.7094 22.7449L17.5724 23.25C17.6357 23.1419 17.6768 23.0222 17.6932 22.8979L16.7019 22.7667ZM16.7094 22.7449C16.7133 22.7382 16.7185 22.7324 16.7247 22.7277L17.3247 23.5277C17.4249 23.4526 17.5091 23.3581 17.5724 23.25L16.7094 22.7449ZM16.7247 22.7277C16.7309 22.7231 16.7379 22.7197 16.7454 22.7178L16.9887 23.6878C17.1102 23.6573 17.2244 23.6029 17.3247 23.5277L16.7247 22.7277ZM16.7454 22.7178C16.7529 22.716 16.7607 22.7156 16.7684 22.7168L16.6169 23.7052C16.7407 23.7242 16.8671 23.7183 16.9887 23.6878L16.7454 22.7178ZM1.82874 0.793837C1.57477 0.793837 1.3312 0.894726 1.15161 1.07431L1.85872 1.78142C1.85077 1.78937 1.83998 1.79384 1.82874 1.79384V0.793837ZM1.15161 1.07431C0.972031 1.25389 0.871142 1.49746 0.871142 1.75143H1.87114C1.87114 1.76268 1.86667 1.77346 1.85872 1.78142L1.15161 1.07431ZM0.871142 1.75143V22.2643H1.87114V1.75143H0.871142ZM0.871439 22.2815C0.880003 22.5297 0.984662 22.7649 1.16332 22.9374L1.85792 22.218C1.86583 22.2256 1.87047 22.236 1.87084 22.247L0.871439 22.2815ZM1.16332 22.9374C1.34199 23.1099 1.58068 23.2062 1.82903 23.2061L1.82844 22.2061C1.83944 22.2061 1.85001 22.2103 1.85792 22.218L1.16332 22.9374ZM1.82874 23.2061H16.1719V22.2061H1.82874V23.2061ZM16.1716 23.2061C16.42 23.2062 16.6587 23.1099 16.8373 22.9374L16.1427 22.218C16.1507 22.2103 16.1612 22.2061 16.1722 22.2061L16.1716 23.2061ZM16.8373 22.9374C17.016 22.7649 17.1207 22.5297 17.1292 22.2815L16.1298 22.247C16.1302 22.236 16.1348 22.2256 16.1427 22.218L16.8373 22.9374ZM17.1295 22.2643V7.16366H16.1295V22.2643H17.1295ZM16.9831 6.81011L11.1133 0.940284L10.4061 1.64739L16.276 7.51721L16.9831 6.81011ZM10.7597 0.793837H1.82874V1.79384H10.7597V0.793837ZM16.882 6.55321L11.312 6.55321V7.55321L16.882 7.55321V6.55321ZM11.3289 6.55349C11.3397 6.55386 11.3499 6.55829 11.3575 6.56589L10.6504 7.273C10.822 7.44464 11.0524 7.54469 11.295 7.55292L11.3289 6.55349ZM11.3575 6.56589C11.3651 6.57349 11.3695 6.5837 11.3699 6.59444L10.3704 6.62835C10.3787 6.87094 10.4787 7.10136 10.6504 7.273L11.3575 6.56589ZM11.3702 6.61139V1.04137H10.3702V6.61139H11.3702ZM16.882 6.80567H11.1226V7.80567H16.882V6.80567ZM11.1037 6.80603C11.1139 6.80564 11.1241 6.80737 11.1335 6.81108L10.7684 7.74202C10.8871 7.78858 11.0141 7.81013 11.1415 7.80532L11.1037 6.80603ZM11.1336 6.81108C11.143 6.8148 11.1516 6.82044 11.1588 6.82764L10.4517 7.53475C10.5419 7.6249 10.6497 7.69547 10.7684 7.74202L11.1336 6.81108ZM11.1588 6.82764C11.166 6.83484 11.1717 6.84345 11.1754 6.85293L10.2445 7.2181C10.291 7.33679 10.3616 7.44459 10.4517 7.53475L11.1588 6.82764ZM11.1754 6.85293C11.1791 6.86241 11.1808 6.87256 11.1804 6.88273L10.1812 6.84498C10.1763 6.97239 10.1979 7.09941 10.2445 7.2181L11.1754 6.85293ZM11.1808 6.86386V1.05715H10.1808V6.86386H11.1808ZM11.1604 0.915881C11.1728 0.957989 11.1745 1.00253 11.1653 1.04545L10.1875 0.83592C10.1618 0.956003 10.1665 1.08061 10.2012 1.19842L11.1604 0.915881ZM11.1653 1.04545C11.1561 1.08837 11.1363 1.12831 11.1078 1.16164L10.3485 0.510847C10.2686 0.60409 10.2132 0.715835 10.1875 0.83592L11.1653 1.04545ZM11.094 1.17705C11.0686 1.20435 11.0373 1.22555 11.0025 1.23906L10.6404 0.306919C10.5347 0.347991 10.4396 0.412439 10.3623 0.495442L11.094 1.17705ZM11.0025 1.23906C10.9677 1.25257 10.9303 1.25805 10.8931 1.25507L10.9729 0.258256C10.8598 0.24921 10.7462 0.265846 10.6404 0.306919L11.0025 1.23906ZM10.8931 1.25507C10.8559 1.2521 10.8199 1.24075 10.7877 1.22188L11.2934 0.359156C11.1955 0.301795 11.086 0.267302 10.9729 0.258256L10.8931 1.25507ZM10.7877 1.22188C10.7555 1.20301 10.728 1.17711 10.7072 1.1461L11.538 0.5895C11.4749 0.49526 11.3912 0.416516 11.2934 0.359156L10.7877 1.22188ZM16.6857 7.11386C16.6653 7.07863 16.6546 7.03866 16.6546 6.99798H17.6546C17.6546 6.86312 17.6191 6.73064 17.5517 6.61386L16.6857 7.11386ZM16.6546 6.99798C16.6546 6.9573 16.6653 6.91733 16.6857 6.8821L17.5517 7.3821C17.6191 7.26532 17.6546 7.13284 17.6546 6.99798H16.6546ZM16.6367 6.99909C16.6525 6.94198 16.687 6.89184 16.7348 6.8568L17.3262 7.66321C17.4599 7.56517 17.5566 7.42491 17.6007 7.26511L16.6367 6.99909ZM16.7348 6.8568C16.7826 6.82176 16.8408 6.80386 16.9 6.806L16.864 7.80535C17.0296 7.81132 17.1925 7.76124 17.3262 7.66321L16.7348 6.8568ZM10.6226 1.65676V6.31159H11.6226V1.65676H10.6226ZM10.6226 6.31159C10.6226 6.56556 10.7235 6.80913 10.9031 6.98871L11.6102 6.2816C11.6182 6.28956 11.6226 6.30034 11.6226 6.31159H10.6226ZM10.9031 6.98871C11.0827 7.16829 11.3262 7.26918 11.5802 7.26918V6.26918C11.5915 6.26918 11.6022 6.27365 11.6102 6.2816L10.9031 6.98871ZM11.5802 7.26918H16.3139V6.26918H11.5802V7.26918ZM16.6648 6.41293L11.4735 1.30051L10.7718 2.01301L15.9631 7.12543L16.6648 6.41293Z" fill="#333333"/>
</svg>
