<svg width="40" height="40" viewBox="0 0 18 19" fill="none" xmlns="http://www.w3.org/2000/svg">
<path fill-rule="evenodd" clip-rule="evenodd" d="M5 6.50098C5 5.44011 5.42143 4.4227 6.17157 3.67255C6.92172 2.92241 7.93913 2.50098 9 2.50098C10.0609 2.50098 11.0783 2.92241 11.8284 3.67255C12.5786 4.4227 13 5.44011 13 6.50098C13 7.56184 12.5786 8.57926 11.8284 9.3294C11.0783 10.0796 10.0609 10.501 9 10.501C7.93913 10.501 6.92172 10.0796 6.17157 9.3294C5.42143 8.57926 5 7.56184 5 6.50098ZM12.824 11.124C13.7755 10.3368 14.461 9.27527 14.7868 8.08414C15.1127 6.89302 15.0631 5.63035 14.6448 4.46846C14.2265 3.30657 13.4599 2.30205 12.4495 1.59197C11.4392 0.881898 10.2344 0.500862 8.9995 0.500862C7.7646 0.500862 6.55978 0.881898 5.54946 1.59197C4.53913 2.30205 3.77251 3.30657 3.35421 4.46846C2.9359 5.63035 2.8863 6.89302 3.21217 8.08414C3.53803 9.27527 4.22349 10.3368 5.175 11.124C1.986 12.247 0 14.748 0 17.501C0 17.7662 0.105357 18.0205 0.292893 18.2081C0.48043 18.3956 0.734784 18.501 1 18.501C1.26522 18.501 1.51957 18.3956 1.70711 18.2081C1.89464 18.0205 2 17.7662 2 17.501C2 15.231 4.355 12.501 9 12.501C13.645 12.501 16 15.231 16 17.501C16 17.7662 16.1054 18.0205 16.2929 18.2081C16.4804 18.3956 16.7348 18.501 17 18.501C17.2652 18.501 17.5196 18.3956 17.7071 18.2081C17.8946 18.0205 18 17.7662 18 17.501C18 14.748 16.016 12.247 12.824 11.124Z" fill="#333333"/>
</svg>